<?xml version="1.0" encoding="utf-8" ?><svg xmlns="http://www.w3.org/2000/svg" xmlns:xlink="http://www.w3.org/1999/xlink" width="1138" height="747" viewBox="0 0 1138 747"><path fill="#E47A35" transform="scale(0.993054 0.993054)" d="M572.199 25.4291C578.256 27.3264 579.729 29.4286 584.019 33.9284C601.141 51.8891 620.439 68.3449 635.864 87.8453C642.978 95.6787 647.751 103.83 653.478 112.463C676.199 146.715 690.309 188.808 695.147 229.535C695.329 231.069 696.754 242.952 696.742 243.252C698.486 256.939 696.525 273.233 694.935 286.83C690.549 324.33 681.324 362.541 661.471 395.055C656.763 402.766 653.172 411.952 646.509 418.601C645.808 419.637 645.287 420.465 644.439 421.402C642.109 426.53 633.55 441.727 628.076 441.47L627.17 440.214C627.402 437.106 629.108 431.938 629.932 428.726C632.389 419.149 636.099 408.932 637.953 399.301C640.437 391.358 638.2 386.862 642.682 380.727C643.031 370.942 642.73 364.073 644.711 354.174C645.991 347.773 644.311 336.684 644.91 329.899C642.816 315.662 642.529 299.186 639.819 285.43C631.561 243.503 606.31 185.491 573.793 156.691C568.282 161.807 562.957 169.007 558.268 174.865C533.279 206.075 513.279 243.791 507.171 283.653C506.553 287.684 504.765 296.472 504.729 300.25C504.384 335.714 517.493 371.133 541.742 397.108C550.546 406.54 564.271 416.514 575.263 422.914C588.908 430.859 600.281 436.903 610.933 449.092C625.446 461.479 635.748 485.358 638.883 503.849C639.955 510.173 640.055 542.813 638.707 548.973C633.518 572.675 621.555 600.741 605.99 619.658C602.601 623.778 596.485 628.96 592.692 633.267C588.815 637.183 585.314 641.544 581.563 645.558C579.093 648.2 576.644 648.34 574.337 651.831C564.363 646.24 541.103 620.72 534.383 611.049C511.137 577.641 502.269 536.304 509.768 496.303C512.603 480.8 525.306 445.086 538.139 436.167C531.28 433.284 522.215 427.577 516.902 422.345C504.351 413.048 493.453 401.707 484.664 388.796C470.532 367.871 463.322 348.998 457.896 324.451C457.335 319.414 453.725 309.807 453.771 305.152C453.856 296.385 452.801 291.547 451.225 283.153C450.817 277.268 451.283 270.582 451.06 264.771C447.893 182.353 486.218 105.154 546.241 50.1926C554.396 42.7257 563.039 31.581 572.199 25.4291ZM573.889 577.928C589.268 555.368 603.784 538.017 603.672 508.573C603.58 484.202 593.39 466.648 572.726 453.043C569.748 451.082 547.84 441.42 545.309 442.101C544.709 447.081 542.382 449.939 541.262 455.522C538.242 464.195 538.097 473.22 538.113 482.306C538.157 507.216 540.222 521.916 551.323 544.876C553.628 549.645 570.478 576.743 573.381 577.771C573.548 577.831 573.72 577.876 573.889 577.928Z"/><path fill="#F4EFEE" transform="scale(0.993054 0.993054)" d="M572.199 25.4291C578.256 27.3264 579.729 29.4286 584.019 33.9284C601.141 51.8891 620.439 68.3449 635.864 87.8453C642.978 95.6787 647.751 103.83 653.478 112.463C676.199 146.715 690.309 188.808 695.147 229.535C695.329 231.069 696.754 242.952 696.742 243.252C696.641 245.498 696.687 247.184 696.028 249.347C696.001 251.447 693.268 240.88 693.385 241.377C693.191 234.128 691.715 224.457 690.497 217.122C682.516 169.04 664.817 131.56 636.226 92.8662C630.598 86.1234 625.084 79.4276 619.149 72.9415C605.308 57.8165 587.106 42.1782 573.923 26.8164C557.345 44.4383 535.777 63.8119 520.352 81.5521C475.612 132.974 451.884 199.359 453.893 267.488C454.171 276.897 454.245 287.954 455.501 297.098C460.682 334.797 471.494 371.953 496.535 401.466C499.398 404.841 516.608 420.143 516.902 422.345C504.351 413.048 493.453 401.707 484.664 388.796C470.532 367.871 463.322 348.998 457.896 324.451C457.335 319.414 453.725 309.807 453.771 305.152C453.856 296.385 452.801 291.547 451.225 283.153C450.817 277.268 451.283 270.582 451.06 264.771C447.893 182.353 486.218 105.154 546.241 50.1926C554.396 42.7257 563.039 31.581 572.199 25.4291Z"/><path fill="#F4EFEE" transform="scale(0.993054 0.993054)" d="M573.959 152.826C638.545 221.84 662.164 310.803 640.144 402.582C638.621 404.173 639.378 404.834 637.9 405.356C637.713 403.262 637.851 401.387 637.953 399.301C640.437 391.358 638.2 386.862 642.682 380.727C643.031 370.942 642.73 364.073 644.711 354.174C645.991 347.773 644.311 336.684 644.91 329.899C642.816 315.662 642.529 299.186 639.819 285.43C631.561 243.503 606.31 185.491 573.793 156.691C568.282 161.807 562.957 169.007 558.268 174.865C533.279 206.075 513.279 243.791 507.171 283.653C506.553 287.684 504.765 296.472 504.729 300.25C504.384 335.714 517.493 371.133 541.742 397.108C550.546 406.54 564.271 416.514 575.263 422.914C588.908 430.859 600.281 436.903 610.933 449.092C609.503 448.821 596.803 438.833 594.489 437.012C584.605 429.232 573.629 424.918 563.258 418.183C552.399 411.132 541.125 401.134 533.072 390.95C510.018 362.218 499.585 325.374 504.152 288.822C508.781 249.677 534.972 195.154 561.071 166.292C564.717 162.26 569.858 156.059 573.959 152.826Z"/><path fill="#F5E4DB" transform="scale(0.993054 0.993054)" d="M693.385 241.377C693.268 240.88 696.001 251.447 696.028 249.347C696.687 247.184 696.641 245.498 696.742 243.252C698.486 256.939 696.525 273.233 694.935 286.83C690.549 324.33 681.324 362.541 661.471 395.055C656.763 402.766 653.172 411.952 646.509 418.601C646.216 417.969 645.767 417.456 646.232 416.76C674.121 375.081 691.691 326.011 693.388 275.699C693.774 264.262 693.461 252.809 693.385 241.377Z"/><path fill="#F5E4DB" transform="scale(0.993054 0.993054)" d="M644.439 421.402C642.109 426.53 633.55 441.727 628.076 441.47L627.17 440.214C627.402 437.106 629.108 431.938 629.932 428.726C632.389 419.149 636.099 408.932 637.953 399.301C637.851 401.387 637.713 403.262 637.9 405.356C639.378 404.834 638.621 404.173 640.144 402.582C638.414 410.009 636.255 417.33 633.678 424.508C633.859 426.455 633.893 428.046 634.562 429.888L635.338 430.187L637.182 429.222C638.775 426.781 641.709 422.219 643.79 420.413L644.439 421.402Z"/><path fill="#F7BE95" transform="scale(0.993054 0.993054)" d="M637.182 429.222C635.824 431.599 633.555 436.445 631.187 437.168C630.028 434.2 632.614 427.632 633.678 424.508C633.859 426.455 633.893 428.046 634.562 429.888L635.338 430.187L637.182 429.222Z"/><path fill="#F5E4DB" transform="scale(0.993054 0.993054)" d="M544.583 438.552C570.714 449.798 589.759 456.617 601.618 485.542C609.923 505.797 607.772 521.423 599.33 541.099C594.8 551.657 582.847 572.327 574.122 579.173L573.364 579.067C573.468 578.133 573.241 578.476 573.889 577.928C589.268 555.368 603.784 538.017 603.672 508.573C603.58 484.202 593.39 466.648 572.726 453.043C569.748 451.082 547.84 441.42 545.309 442.101C544.709 447.081 542.382 449.939 541.262 455.522C540.656 451.846 543.519 442.419 544.583 438.552Z"/><path fill="#E47A35" transform="scale(0.993054 0.993054)" d="M684.453 446.019C680.036 412.642 707.97 348.088 726.494 320.886C765.159 264.109 825.037 221.581 892.158 205.894C921.428 199.053 953.469 198.754 983.665 199.12C989.911 199.196 1010.29 198.148 1014.89 199.941C1015.06 200.265 1015.32 200.703 1015.34 201.053C1016.18 216.913 1015.42 234.12 1015.63 249.932C1015.78 260.948 1016.37 269.394 1016.11 280.089C1016.05 282.687 1013.32 287.592 1013.21 288.921C1012.32 299.355 1015.53 299.053 1010.06 308.739C1010.76 315.344 1011.02 316.798 1007.17 322.419C1008.76 333.832 994.064 359.77 991.238 371.996C990.71 374.282 987.679 379.267 987.535 381.11C985.465 390.043 979.181 398.468 974.378 406.159C969.891 413.345 965.567 420.554 960.511 427.37C939.152 456.164 910.61 480.443 880.33 499.319C852.932 516.399 815.883 528.898 783.783 532.709C778.273 533.363 773.6 534.394 768.001 533.808L766.682 534.094C763.363 535.253 751.286 540.888 751.41 533.151C753.47 529.791 776.129 521.506 780.827 519.726C786.64 517.523 792.366 514.37 797.907 511.57L799.1 510.663C808.991 500.389 827.798 490.455 838.929 479.283C867.935 450.171 892.101 416.565 906.387 377.77C913.878 357.426 918.005 335.996 922.448 314.886C923.715 308.395 921.686 301.315 923.485 292.54C914.671 290.609 906.733 293.146 898.8 294.237C870.923 298.07 846.271 308.638 822.625 323.768C806.781 333.907 791.422 346.641 778.503 360.59C776.997 362.216 775.497 366.502 773.875 368.457C771.888 370.852 767.077 374.024 765.541 376.441C764.029 378.823 762.892 383.614 761.043 386.397C758.811 389.757 755.347 391.277 753.643 394.976C751.59 399.43 747.123 405.676 745.373 410.091C740.826 421.56 736.952 435.118 734.271 447.176C734.053 448.157 734.421 452.503 734.508 453.672C731.332 458.567 731.027 463.496 729.943 469.2C726.241 488.685 721.24 506.164 714.991 524.94C706.375 550.825 697.34 575.706 684.429 599.878C676.659 612.673 667.741 624.782 659.631 637.379C658.41 639.275 655.916 641.445 654.594 643.311C647.621 653.151 638.439 660.823 630.645 669.803C628.292 668.238 622.98 667.886 620.672 669.577C620.755 673.27 630.997 678.885 624.608 683.425L623.684 683.243C624.267 681.205 625.054 679.471 624.47 677.535L623.693 677.232C613.88 684.057 604.686 692.551 594.454 699.836C564.823 720.636 531.622 735.812 496.504 744.609C491.48 745.831 474.779 751.041 471.205 747.697C472.923 746.503 477.938 744.603 480.355 743.438L506.464 730.73C522.01 723.019 542.439 710.564 556.902 700.851C557.454 700.643 558.003 700.429 558.55 700.209C561.469 699.029 562.248 698.757 563.494 695.834C565.328 694.012 566.065 693.545 568.19 692.126L569.707 691.856C569.66 695.345 569.119 697.826 572.044 700.179C581.697 700.505 573.605 679.118 577.467 674.69L579.271 674.587C578.646 676.186 578.326 682.029 578.089 684.197C593.618 673.256 611.21 655.081 622.667 639.846C624.862 636.928 627.02 632.148 629.204 628.797C632.553 623.501 637.112 618.205 640.049 612.687C653.553 587.307 665.178 560.036 670.783 531.728C672.031 525.422 671.551 521.966 675.284 516.515C675.265 507.949 673.463 504.11 678.632 497.136C679.213 487.673 675.197 482.86 681.546 473.727C681.8 466.934 680.006 462.051 681.16 455.875C681.89 451.967 683.374 450.517 684.318 446.595L684.453 446.019Z"/><path fill="#F4EFEE" transform="scale(0.993054 0.993054)" d="M684.453 446.019C680.036 412.642 707.97 348.088 726.494 320.886C765.159 264.109 825.037 221.581 892.158 205.894C921.428 199.053 953.469 198.754 983.665 199.12C989.911 199.196 1010.29 198.148 1014.89 199.941C1015.06 200.265 1015.32 200.703 1015.34 201.053C1016.18 216.913 1015.42 234.12 1015.63 249.932C1015.78 260.948 1016.37 269.394 1016.11 280.089C1016.05 282.687 1013.32 287.592 1013.21 288.921C1012.32 299.355 1015.53 299.053 1010.06 308.739C1009.48 304.915 1011.99 297.032 1012.22 293.237C1013.04 279.966 1017.58 209.96 1013.71 202.985C1007.86 199.984 933.083 201.946 921.805 203.441C904.964 205.661 888.353 209.372 872.169 214.531C803.544 236.678 746.515 285.154 713.608 349.314C702.232 371.641 693.884 395.385 688.785 419.918C687.037 428.23 686.712 437.801 684.453 446.019Z"/><path fill="#F4EFEE" transform="scale(0.993054 0.993054)" d="M768.001 533.808C768.741 533.278 777.374 531.365 778.709 531.196C800.368 528.457 821.01 522.94 841.376 514.82C891.418 494.704 934.429 460.299 965.042 415.898C970.402 408.042 975.097 400.608 979.686 392.292C981.487 389.028 984.721 381.664 987.002 379.416L987.535 381.11C985.465 390.043 979.181 398.468 974.378 406.159C969.891 413.345 965.567 420.554 960.511 427.37C939.152 456.164 910.61 480.443 880.33 499.319C852.932 516.399 815.883 528.898 783.783 532.709C778.273 533.363 773.6 534.394 768.001 533.808Z"/><path fill="#F4EFEE" transform="scale(0.993054 0.993054)" d="M923.485 292.54L924.372 292.216C925.486 294.199 924.023 301.652 923.886 304.561C919.93 388.167 871.866 466.638 801.264 510.892C800.773 511.2 800.425 511.171 799.885 511.119L799.1 510.663C808.991 500.389 827.798 490.455 838.929 479.283C867.935 450.171 892.101 416.565 906.387 377.77C913.878 357.426 918.005 335.996 922.448 314.886C923.715 308.395 921.686 301.315 923.485 292.54Z"/><path fill="#F4EFEE" transform="scale(0.993054 0.993054)" d="M797.907 511.57L798.826 512.302C791.554 518.155 760.182 530.667 759.011 531.899L759.216 532.679C762.362 533.889 764.433 532.981 766.682 534.094C763.363 535.253 751.286 540.888 751.41 533.151C753.47 529.791 776.129 521.506 780.827 519.726C786.64 517.523 792.366 514.37 797.907 511.57Z"/><path fill="#E47A35" transform="scale(0.993054 0.993054)" d="M362.522 530.592C357.46 530.603 344.139 527.281 338.583 525.954C300.339 516.819 256.38 495.827 227.159 469.144C170.486 418.358 136.669 346.881 133.347 270.858C132.979 262.513 131.249 202.257 133.592 199.699C139.422 197.32 197.932 199.113 207.892 199.458C277.447 201.871 348.67 235.838 394.342 287.779C399.231 293.033 405.455 300.274 409.976 305.951C426.581 327.085 442.999 358.597 450.893 384.359C451.876 387.564 454.232 394.566 454.59 397.584C456.405 401.261 460.675 419.121 460.471 422.85C463.81 430.305 463.104 439.984 465.507 448.001C466.05 449.814 466.487 454.526 465.216 456.325C461.392 453.895 444.395 420.78 439.988 414.008C404.243 359.071 348.606 316.021 284.446 300.442C269.475 296.807 254.183 294.667 238.783 292.368C234.091 292.123 229.394 291.968 224.696 291.904C224.707 299.995 226.717 304.762 227.526 311.951C229.41 328.681 232.831 344.73 236.6 361.117C237.799 366.329 244.672 382.924 244.555 386.848L244.858 387.308C250.045 395.325 254.434 409.056 260.861 419.427C288.222 463.574 324.934 493.092 376.135 504.991C380.083 505.909 393.795 507.266 397.291 506.113C397.935 504.899 397.735 505.276 397.579 503.668C394.605 499.549 390.387 491.091 387.758 486.354C382.735 477.301 367.201 452.906 360.156 446.332C346.955 433.648 332.715 422.442 317.836 411.871C316.668 411.041 315.445 409.718 314.734 408.472L315.048 407.599C318.167 406.736 324.577 408.521 327.897 409.197C351.524 414.009 374.287 425.27 395.348 436.679C413.053 446.269 444.621 473.167 451.957 492.219C456.62 497.269 469.093 528.742 466.024 534.551C460.746 538.515 416.699 535.627 407.232 536.475C405.185 536.658 398.557 535.984 396.238 535.658L362.653 530.635C362.609 530.62 362.565 530.606 362.522 530.592Z"/><path fill="#F4EFEE" transform="scale(0.993054 0.993054)" d="M362.522 530.592C357.46 530.603 344.139 527.281 338.583 525.954C300.339 516.819 256.38 495.827 227.159 469.144C170.486 418.358 136.669 346.881 133.347 270.858C132.979 262.513 131.249 202.257 133.592 199.699C139.422 197.32 197.932 199.113 207.892 199.458C277.447 201.871 348.67 235.838 394.342 287.779L390.803 287.979C351.465 244.81 292.181 213.712 234.52 205.334C203.026 200.757 167.899 202.412 135.883 202.404L135.767 256.66C135.767 265.897 135.247 277.319 136.026 286.29C141.669 351.267 173.351 411.826 218.523 457.927C256.432 496.617 309.341 519.282 361.764 529.058C362.599 529.213 362.529 529.513 362.738 530.164L362.522 530.592Z"/><path fill="#F7BE95" transform="scale(0.993054 0.993054)" d="M238.783 292.368C246.304 290.508 254.96 292.379 262.502 293.698C295.398 299.324 326.943 311.085 355.491 328.37C388.32 348.054 416.375 374.772 437.637 406.6C445.965 418.934 452.412 431.051 459.361 444.142C459.963 445.278 461.121 446.554 462.481 446.401C463.7 441.332 460.167 429.662 460.471 422.85C463.81 430.305 463.104 439.984 465.507 448.001C466.05 449.814 466.487 454.526 465.216 456.325C461.392 453.895 444.395 420.78 439.988 414.008C404.243 359.071 348.606 316.021 284.446 300.442C269.475 296.807 254.183 294.667 238.783 292.368Z"/><path fill="#F4EFEE" transform="scale(0.993054 0.993054)" d="M360.156 446.332C346.955 433.648 332.715 422.442 317.836 411.871C316.668 411.041 315.445 409.718 314.734 408.472L315.048 407.599C318.167 406.736 324.577 408.521 327.897 409.197C351.524 414.009 374.287 425.27 395.348 436.679C413.053 446.269 444.621 473.167 451.957 492.219C449.981 490.601 444.756 482.67 442.804 480.212C415.567 445.901 376.1 425.425 334.67 413.428C331.242 412.436 323.17 408.843 320.117 410.333C319.694 411.491 319.541 411.249 320.584 411.945C328.593 417.295 357.71 437.028 360.062 445.929C360.098 446.062 360.125 446.198 360.156 446.332Z"/><path fill="#F4EFEE" transform="scale(0.993054 0.993054)" d="M244.555 386.848L244.858 387.308C250.045 395.325 254.434 409.056 260.861 419.427C288.222 463.574 324.934 493.092 376.135 504.991C380.083 505.909 393.795 507.266 397.291 506.113C397.935 504.899 397.735 505.276 397.579 503.668L397.852 503.771C399.523 505.46 400.442 508.028 401.433 510.239C395.923 510.454 388.424 509.136 382.969 508.146C355.291 503.283 329.166 491.909 306.751 474.961C283.868 457.565 264.2 431.937 252.3 406.074C249.926 400.916 245.308 392.449 244.555 386.848Z"/><path fill="#F4EFEE" transform="scale(0.993054 0.993054)" d="M405.572 305.084C407.425 305.26 407.728 305.261 409.316 306.203L409.976 305.951C426.581 327.085 442.999 358.597 450.893 384.359C451.876 387.564 454.232 394.566 454.59 397.584C453.546 396.657 446.384 376.502 444.965 372.862C435.22 347.863 421.542 326.553 405.572 305.084Z"/><path fill="#F4EFEE" transform="scale(0.993054 0.993054)" d="M394.342 287.779C399.231 293.033 405.455 300.274 409.976 305.951L409.316 306.203C407.728 305.261 407.425 305.26 405.572 305.084L390.803 287.979L394.342 287.779Z"/><path fill="#4BA459" transform="scale(0.993054 0.993054)" d="M212.735 493.635C217.667 500.737 221.042 505.575 226.412 512.371C271.218 555.823 353.842 564.011 413.198 570.054C425.965 571.353 439.405 571.195 452.503 572.99C461.785 574.262 472.313 573.155 482.165 574.95C484.005 580.223 484.889 585.052 486.495 590.091C489.555 599.687 494.548 612.322 499.625 621.072C501.65 623.884 505.297 628.001 504.855 631.311C501.77 633.09 493.632 627.586 490.61 625.883C489.767 625.818 479.43 621.853 477.526 621.34C406.568 602.215 324.184 615.718 260.629 571.587C242.081 559.517 227.89 541.651 219.503 521.234C214.859 509.929 212.176 506.315 212.735 493.635Z"/><path fill="#AEDDBF" transform="scale(0.993054 0.993054)" d="M212.735 493.635C217.667 500.737 221.042 505.575 226.412 512.371C223.091 511.587 219.408 504.018 216.877 505.17C215.898 510.854 223.384 525.516 226.139 530.678C233.359 544.207 243.415 556.186 255.277 565.853C256.628 566.954 260.147 569.925 260.629 571.587C242.081 559.517 227.89 541.651 219.503 521.234C214.859 509.929 212.176 506.315 212.735 493.635Z"/><path fill="#6BBF81" transform="scale(0.993054 0.993054)" d="M499.625 621.072C501.65 623.884 505.297 628.001 504.855 631.311C501.77 633.09 493.632 627.586 490.61 625.883C493.137 626.111 496.773 627.323 498.941 626.606C500.143 624.841 499.657 623.605 499.625 621.072Z"/><path fill="#4BA459" transform="scale(0.993054 0.993054)" d="M721.756 570.363L722.117 570.369C733.128 570.476 747.4 565.662 759.506 567.276C761.493 567.54 768.261 564.739 770.681 564.718C775.451 564.143 780.881 564.402 785.552 563.624C836.944 555.062 899.896 545.684 932.006 499.802C934.13 496.769 933.855 493.978 937.595 493.893C946.559 499.16 924.337 537.356 919.769 543.933C910.706 556.983 900.392 567.399 886.632 575.324C861.297 592.306 838.702 595.337 810.2 602.79C808.278 603.135 805.598 602.794 803.851 603.228C796.794 605.991 786.44 604.84 779.959 606.44C771 608.653 764.667 607.876 756.306 609.007C745.601 610.456 737.105 612.121 725.945 611.806C719.652 611.629 711.904 614.936 704.897 613.507L704.247 612.225C704.371 608.346 708.19 602.603 710.879 599.94C713.853 589.224 719.571 580.638 721.756 570.363Z"/><path fill="#F4EFEE" transform="scale(0.993054 0.993054)" d="M721.756 570.363L722.117 570.369C733.128 570.476 747.4 565.662 759.506 567.276C761.493 567.54 768.261 564.739 770.681 564.718C775.451 564.143 780.881 564.402 785.552 563.624C836.944 555.062 899.896 545.684 932.006 499.802C934.13 496.769 933.855 493.978 937.595 493.893C946.559 499.16 924.337 537.356 919.769 543.933C910.706 556.983 900.392 567.399 886.632 575.324C861.297 592.306 838.702 595.337 810.2 602.79C807.423 602.581 804.165 602.59 801.345 602.527C804.298 601.49 807.36 600.807 810.411 600.327C851.136 593.919 892.413 577.112 917.011 542.449C924.489 531.911 933.752 514.639 935.188 501.357C933.106 503.306 931.229 505.93 929.264 508.198C924.828 513.317 921.056 517.11 915.625 521.253C874.807 552.386 820.067 561.755 770.238 567.436C766.276 568.161 759.574 567.459 755.806 568.446C745.919 571.037 735.64 569.947 726.036 571.201C722.655 571.643 718.631 586.056 716.944 589.305C715.425 592.23 713.261 596.644 711.593 599.83L710.879 599.94C713.853 589.224 719.571 580.638 721.756 570.363Z"/><path fill="#43696A" transform="scale(0.993054 0.993054)" d="M476.466 667.837C477.11 663.86 477.098 661.257 480.846 658.631C485.905 655.088 495.592 655.253 499.388 660.612C500.603 662.329 500.39 663.982 499.881 665.935C496.4 668.618 492.1 663.46 486.997 663.965C485.181 665.152 485.796 664.551 484.838 667.06L485.172 667.73C488.997 668.411 503.826 668.04 508.402 667.986C510.884 661.324 514.414 657.532 521.951 656.684C528.102 655.992 536.64 656.244 541.844 660.068C543.866 661.554 543.63 664.083 543.881 666.561L543.315 668.132C544.849 668.096 549.255 667.907 550.52 668.127C555.206 667.893 563.195 667.951 567.66 666.665C568.774 666.344 568.76 665.28 569.077 664.098C568.649 655.529 574.894 654.228 578.757 660.204C578.512 664.207 578.088 665.432 580.984 668.482L581.184 668.69C581.88 671.577 582.355 673.708 579.271 674.587L577.467 674.69C573.605 679.118 581.697 700.505 572.044 700.179C569.119 697.826 569.66 695.345 569.707 691.856L568.19 692.126C568.444 690.255 568.893 688.597 568.252 686.89C566.142 685.613 564.26 686.089 561.539 686.201C561.718 689.663 561.629 692.836 563.494 695.834C562.248 698.757 561.469 699.029 558.55 700.209C558.003 700.429 557.454 700.643 556.902 700.851C555.48 698.927 554.864 697.655 553.768 695.541C551.048 685.328 551.716 680.348 562.344 676.739C564.036 676.621 564.237 676.654 565.782 676.029C563.91 675.201 562.706 675.383 560.658 675.394C556.762 675.15 552.861 674.992 548.958 674.922C548.994 681.578 549.275 690.048 548.702 696.71C548.579 698.136 547.411 699.26 546.174 699.984C543.955 700.299 543.62 700.366 541.474 699.774C537.642 696.123 541.871 692.723 540.131 689.51C538.285 688.886 534.871 689.049 532.788 689.042C532.677 691.417 532.332 693.771 532.034 696.132C529.664 696.071 526.909 695.668 524.519 695.379C521.87 689.432 519.623 687.482 524.201 682.125L523.707 674.385C522.174 674.628 519.349 674.779 518.42 675.626C517.736 683.16 518.319 692.232 518.09 699.952L509.833 699.811C509.775 698.491 509.445 692.962 509.632 692.025C509.582 686.84 509.27 679.65 509.897 674.698L505.405 674.968C506.148 683.375 505.232 684.463 498.625 689.502C501.661 691.764 503.978 695.91 505.764 699.221C501.658 699.873 499.78 699.805 495.65 699.084C494.897 697.227 494.159 695.343 493.151 693.598C490.993 689.864 487.194 688.572 488.089 684.34C490.249 682.073 493.619 681.973 496.781 681.451L497.42 674.864C493.442 674.796 488.524 674.58 484.625 674.825C484.651 683.576 484.726 690.83 483.675 699.57C481.412 699.666 478.813 700.018 476.81 699.087C474.386 695.423 478.05 677.447 475.587 675.031C473.823 674.805 473.441 674.606 471.924 675.34C471.207 677.123 471.635 696.239 471.522 699.5C468.78 699.633 465.935 699.837 463.204 699.653L463.256 691.187C462.381 691.285 457.266 693.726 456.209 694.213C437.007 686.996 454.479 676.36 442.091 674.484C441.957 683.019 442.389 691.295 442.065 699.98L434.048 699.662C434.115 695.943 434.715 690.289 432.353 687.449L431.358 687.72C429.25 690.028 428.966 693.144 428.267 696.277L427.782 696.613C422.601 700.17 413.518 702.443 408.481 695.962C407.551 694.765 407.853 693.71 408.167 692.365C411.393 689.169 414.767 692.212 418.989 690.819C420.16 689.259 419.849 689.956 419.782 687.667C417.688 685.785 411.537 688.379 411.26 683.479C410.923 677.512 417.155 681.997 421.043 677.775C420.802 675.868 420.978 676.545 419.726 674.881C416.726 674.41 413.008 675.423 409.746 675.498C408.097 673.423 408.41 674.311 408.047 671.995C409.739 666.717 416.549 667.54 420.934 667.981C424.734 668.363 426.688 670.373 429.298 672.9C429.338 675.746 428.198 677.773 430.438 679.77C432.823 680.14 431.975 680.286 433.996 679.555C434.819 675.41 432.827 675.245 430.293 672.067C429.966 670.004 429.816 670.755 430.556 668.923C434.448 667.504 469.299 668.088 476.466 667.837ZM455.247 685.228C458.664 685.314 459.948 685.406 463.246 684.696L463.301 674.808C460.421 674.664 457.518 674.675 454.632 674.659C455.231 678.041 455.18 681.77 455.247 685.228ZM531.31 668.157C533.431 668.014 535.32 668.094 537.173 667.144L537.362 665.79C532.572 664.178 520.617 660.432 518.209 666.883L518.465 667.742C521.2 668.712 527.547 667.808 531.31 668.157ZM532.363 682.481C534.791 682.497 537.587 682.582 539.979 682.472C540.042 680.036 540.053 677.32 540.23 674.916C538.003 674.856 535.203 674.705 533.033 674.879L532.363 682.481Z"/><path fill="#577A7B" transform="scale(0.993054 0.993054)" d="M511.944 674.557C512.652 680.03 511.537 691.692 513.727 696.16L514.454 696.268C519.138 690.349 507.392 671.411 523.707 674.385C522.174 674.628 519.349 674.779 518.42 675.626C517.736 683.16 518.319 692.232 518.09 699.952L509.833 699.811C509.775 698.491 509.445 692.962 509.632 692.025C509.582 686.84 509.27 679.65 509.897 674.698L505.405 674.968L504.775 674.67L504.913 674.204C507.06 673.79 509.727 674.283 511.944 674.557Z"/><path fill="#829A98" transform="scale(0.993054 0.993054)" d="M509.897 674.698C512.609 678.641 511.733 687.712 509.632 692.025C509.582 686.84 509.27 679.65 509.897 674.698Z"/><path fill="#577A7B" transform="scale(0.993054 0.993054)" d="M442.091 674.484C444.077 673.795 444.927 673.886 446.972 673.886C452.427 677.04 446.78 685.549 450.95 689.968C453.55 691.133 459.138 690.697 462.056 690.511C460.432 690.137 456.43 689.621 455.643 688.253C454.03 685.453 452.119 677.009 454.632 674.659C455.231 678.041 455.18 681.77 455.247 685.228C458.664 685.314 459.948 685.406 463.246 684.696C463.271 686.394 463.403 689.633 463.256 691.187C462.381 691.285 457.266 693.726 456.209 694.213C437.007 686.996 454.479 676.36 442.091 674.484Z"/><path fill="#829A98" transform="scale(0.993054 0.993054)" d="M553.768 695.541C556.045 696.943 558.495 698.497 561.026 697.164C561.848 693.231 555.326 682.628 566.186 682.292C570.825 683.643 569.919 688.035 569.707 691.856L568.19 692.126C568.444 690.255 568.893 688.597 568.252 686.89C566.142 685.613 564.26 686.089 561.539 686.201C561.718 689.663 561.629 692.836 563.494 695.834C562.248 698.757 561.469 699.029 558.55 700.209C558.003 700.429 557.454 700.643 556.902 700.851C555.48 698.927 554.864 697.655 553.768 695.541Z"/><path fill="#577A7B" transform="scale(0.993054 0.993054)" d="M569.077 664.098C568.649 655.529 574.894 654.228 578.757 660.204C576.392 663.695 573.651 668.131 569.077 664.098Z"/><path fill="#F4EFEE" transform="scale(0.993054 0.993054)" d="M578.757 660.204C578.512 664.207 578.088 665.432 580.984 668.482L581.184 668.69C571.538 668.026 560.737 669.06 550.52 668.127C555.206 667.893 563.195 667.951 567.66 666.665C568.774 666.344 568.76 665.28 569.077 664.098C573.651 668.131 576.392 663.695 578.757 660.204Z"/><path fill="#F4EFEE" transform="scale(0.993054 0.993054)" d="M537.362 665.79C538.714 665.243 542.271 666.227 543.881 666.561L543.315 668.132C539.856 668.552 534.734 668.456 531.31 668.157C533.431 668.014 535.32 668.094 537.173 667.144L537.362 665.79Z"/><path fill="#43696A" transform="scale(0.993054 0.993054)" d="M633.54 682.351C635.833 682.308 638.363 682.55 640.183 681.263C643.574 676.62 637.763 674.391 637.422 669.842C638.216 668.816 638.586 668.465 640.198 668.389C650.967 667.881 662.574 668.195 673.347 668.265L731.181 668.342C731.283 670.276 731.626 672.318 730.858 674.001L729.704 674.568L728.05 674.961C726.454 679.822 728.32 693.792 727.064 698.098L726.916 700.455C725.046 703.035 723.009 703.869 722.321 705.283C721.149 702.783 720.458 700.324 719.64 697.693C719.09 694.085 719.092 692.385 719.128 688.699C716.836 688.947 713.974 688.815 712.394 690.042C710.171 693.361 711.697 694.913 709.543 697.169C707.442 697.52 706.594 697.016 704.808 695.754C703.987 695.168 703.178 694.566 702.379 693.949C700.649 683.496 703.412 684.3 703.639 674.934L696.656 674.098C697.005 678.704 699.647 698.07 694.557 700.447C691.578 700.427 690.063 697.85 688.813 695.393C681.779 695.111 677.282 698.127 671.968 692.659C671.699 690.911 671.435 688.817 670.699 687.238C670.135 684.39 669.979 682.902 672.257 680.684L671.223 680.032C674.24 679.736 675.087 679.768 676.638 677.173C675.829 673.345 670.855 674.364 668.008 674.63C663.682 674.643 653.554 674.358 649.621 674.8C649.724 681.656 650.198 693.79 648.894 700.1L641.219 699.965L641.237 688.897C638.763 689.039 636.287 689.145 633.81 689.213C633.363 693.191 633.527 696.424 628.722 696.815C624.196 695.025 621.804 687.284 623.684 683.243L624.608 683.425C630.997 678.885 620.755 673.27 620.672 669.577C622.98 667.886 628.292 668.238 630.645 669.803C631.928 670.351 632.656 670.335 633.005 671.634C633.87 674.863 633.378 679.048 633.54 682.351ZM680.668 684.906C679.606 685.718 679.325 685.892 678.453 686.971L678.788 688.004C681.671 689.248 685.57 688.064 688.562 687.355C689.347 685.05 689.104 678.287 689.034 675.554C687.915 674.339 686.441 674.6 684.375 674.362C684.88 680.002 685.694 681.645 680.668 684.906ZM717.507 682.706L718.812 682.357C719.468 680.08 719.12 676.87 719.005 674.408C717.429 674.422 715.761 674.471 714.197 674.382L712.295 675.042C711.583 676.966 710.931 678.225 711.201 680.284C713.221 683.497 713.805 682.863 717.507 682.706Z"/><path fill="#577A7B" transform="scale(0.993054 0.993054)" d="M719.128 688.699L720.471 688.882C722.471 690.808 721.911 693.478 724.261 696.905C726.527 692.765 722.749 677.53 726.072 674.234C727.844 673.888 727.936 673.974 729.704 674.568L728.05 674.961C726.454 679.822 728.32 693.792 727.064 698.098L726.916 700.455C725.046 703.035 723.009 703.869 722.321 705.283C721.149 702.783 720.458 700.324 719.64 697.693C719.09 694.085 719.092 692.385 719.128 688.699Z"/><path fill="#829A98" transform="scale(0.993054 0.993054)" d="M719.64 697.693C722.256 697.749 724.461 697.77 727.064 698.098L726.916 700.455C725.046 703.035 723.009 703.869 722.321 705.283C721.149 702.783 720.458 700.324 719.64 697.693Z"/><path fill="#577A7B" transform="scale(0.993054 0.993054)" d="M680.668 684.906C681.562 681.507 681.129 676.315 682.965 674.222L684.375 674.362C684.88 680.002 685.694 681.645 680.668 684.906Z"/><path fill="#577A7B" transform="scale(0.993054 0.993054)" d="M662.049 675.328C667.163 676.308 668.067 675.826 671.223 680.032L672.257 680.684C669.979 682.902 670.135 684.39 670.699 687.238C671.435 688.817 671.699 690.911 671.968 692.659C671.641 693.071 671.321 693.468 670.971 693.862C668.849 696.212 665.861 697.596 662.696 697.692C653.305 697.91 652.815 687.772 652.98 681.243C654.284 679.833 655.476 678.789 656.897 677.523C658.117 676.815 660.649 675.889 662.049 675.328ZM669.311 683.36C665.293 682.93 662.871 682.418 662.119 687.277C662.812 688.715 663.107 689.478 664.941 689.692C666.861 688.796 667.929 688.437 669.41 686.862C670.008 685.297 669.808 685.071 669.311 683.36Z"/><path fill="#F4EFEE" transform="scale(0.993054 0.993054)" d="M662.049 675.328C667.163 676.308 668.067 675.826 671.223 680.032L672.257 680.684C669.979 682.902 670.135 684.39 670.699 687.238C669.72 689.706 667.731 691.348 665.06 690.146L664.941 689.692C666.861 688.796 667.929 688.437 669.41 686.862C670.008 685.297 669.808 685.071 669.311 683.36C663.906 679.728 673.014 675.879 656.897 677.523C658.117 676.815 660.649 675.889 662.049 675.328Z"/><path fill="#577A7B" transform="scale(0.993054 0.993054)" d="M726.916 700.455C728.793 703.226 733.016 708.539 732.702 711.704L731.078 712.536C727.55 711.238 724.331 708.4 722.321 705.283C723.009 703.869 725.046 703.035 726.916 700.455Z"/><defs><linearGradient id="gradient_0" gradientUnits="userSpaceOnUse" x1="674.86658" y1="677.11353" x2="664.14655" y2="676.54883"><stop offset="0" stop-color="white" stop-opacity="0"/><stop offset="1" stop-color="#FAFAFB" stop-opacity="0.070588239"/></linearGradient></defs><path fill="url(#gradient_0)" transform="scale(0.993054 0.993054)" d="M668.008 674.63C670.855 674.364 675.829 673.345 676.638 677.173C675.087 679.768 674.24 679.736 671.223 680.032C668.067 675.826 667.163 676.308 662.049 675.328C662.814 675.151 668.866 675.334 670.875 675.176L668.008 674.63Z"/><path fill="#F4EFEE" fill-opacity="0.062745102" transform="scale(0.993054 0.993054)" d="M560.658 675.394C562.706 675.383 563.91 675.201 565.782 676.029C564.237 676.654 564.036 676.621 562.344 676.739L560.658 675.394Z"/></svg>